<svg width="36" height="36" viewBox="0 0 36 36" fill="none" xmlns="http://www.w3.org/2000/svg">
<path d="M18 6.5C14.8768 6.5 14.4852 6.51325 13.2586 6.56919C12.0345 6.62503 11.1985 6.81947 10.467 7.1037C9.71081 7.39759 9.06949 7.79084 8.43018 8.43014C7.79084 9.06945 7.39759 9.71085 7.10374 10.4671C6.81943 11.1985 6.62507 12.0345 6.56916 13.2586C6.51322 14.4852 6.5 14.8768 6.5 18C6.5 21.1232 6.51322 21.5148 6.56916 22.7414C6.62507 23.9655 6.81943 24.8015 7.10374 25.5329C7.39763 26.2892 7.79087 26.9305 8.43018 27.5699C9.06952 28.2092 9.71081 28.6024 10.467 28.8963C11.1985 29.1805 12.0345 29.3749 13.2586 29.4308C14.4852 29.4867 14.8768 29.5 18 29.5C21.1232 29.5 21.5148 29.4867 22.7414 29.4308C23.9655 29.375 24.8015 29.1805 25.5329 28.8963C26.2892 28.6024 26.9305 28.2092 27.5699 27.5699C28.2092 26.9305 28.6024 26.2892 28.8963 25.5329C29.1805 24.8015 29.375 23.9655 29.4308 22.7414C29.4867 21.5148 29.5 21.1232 29.5 18C29.5 14.8768 29.4867 14.4852 29.4308 13.2586C29.375 12.0345 29.1805 11.1985 28.8963 10.4671C28.6024 9.71085 28.2092 9.06945 27.5699 8.43014C26.9305 7.79084 26.2892 7.39759 25.5329 7.1037C24.8015 6.81947 23.9655 6.62503 22.7414 6.56919C21.5148 6.51325 21.1232 6.5 18 6.5ZM18 8.57206C21.0706 8.57206 21.4343 8.5838 22.647 8.63913C23.7682 8.69024 24.3772 8.87759 24.7823 9.03508C25.3192 9.24372 25.7023 9.49289 26.1046 9.89532C26.5071 10.2977 26.7563 10.6808 26.9649 11.2176C27.1224 11.6228 27.3098 12.2318 27.3609 13.353C27.4162 14.5657 27.4279 14.9294 27.4279 18C27.4279 21.0706 27.4162 21.4343 27.3609 22.647C27.3098 23.7682 27.1224 24.3772 26.9649 24.7823C26.7563 25.3192 26.5071 25.7023 26.1046 26.1046C25.7023 26.5071 25.3191 26.7563 24.7824 26.9649C24.3772 27.1224 23.7682 27.3098 22.647 27.3609C21.4346 27.4162 21.0709 27.4279 18 27.4279C14.9291 27.4279 14.5655 27.4162 13.353 27.3608C12.2318 27.3098 11.6228 27.1224 11.2177 26.9649C10.6808 26.7563 10.2977 26.5071 9.89535 26.1046C9.49293 25.7023 9.24372 25.3191 9.03508 24.7824C8.87759 24.3772 8.69028 23.7682 8.63913 22.647C8.5838 21.4343 8.57206 21.0706 8.57206 18C8.57206 14.9294 8.5838 14.5657 8.63913 13.353C8.69028 12.2318 8.87759 11.6228 9.03508 11.2177C9.24372 10.6808 9.49293 10.2977 9.89532 9.89535C10.2977 9.49289 10.6808 9.24372 11.2176 9.03508C11.6228 8.87759 12.2318 8.69024 13.353 8.63913C14.5657 8.5838 14.9294 8.57206 18 8.57206" fill="white"/>
<path d="M17.9999 21.8334C15.8828 21.8334 14.1665 20.1171 14.1665 18C14.1665 15.8829 15.8828 14.1667 17.9999 14.1667C20.117 14.1667 21.8332 15.8829 21.8332 18C21.8332 20.1171 20.117 21.8334 17.9999 21.8334ZM17.9999 12.0946C14.7384 12.0946 12.0945 14.7385 12.0945 18C12.0945 21.2615 14.7384 23.9054 17.9999 23.9054C21.2614 23.9054 23.9053 21.2615 23.9053 18C23.9053 14.7385 21.2614 12.0946 17.9999 12.0946V12.0946ZM25.5186 11.8613C25.5186 12.6235 24.9008 13.2413 24.1386 13.2413C23.3765 13.2413 22.7586 12.6235 22.7586 11.8613C22.7586 11.0991 23.3765 10.4813 24.1386 10.4813C24.9008 10.4813 25.5186 11.0991 25.5186 11.8613" fill="white"/>
</svg>
