<svg xmlns="http://www.w3.org/2000/svg" width="36" height="36" viewBox="0 0 36 36">
  <g id="linkedin-new" transform="translate(-1241 -11028)">
    <circle id="Ellipse_55" data-name="Ellipse 55" cx="18" cy="18" r="18" transform="translate(1241 11028)" fill="#fe7d4c" opacity="0"/>
    <path id="Icon_awesome-linkedin-in" data-name="Icon awesome-linkedin-in" d="M3.861,17.251H.285V5.734H3.861ZM2.071,4.163A2.081,2.081,0,1,1,4.142,2.072,2.089,2.089,0,0,1,2.071,4.163ZM17.247,17.251H13.678V11.644c0-1.336-.027-3.05-1.859-3.05-1.859,0-2.144,1.452-2.144,2.953v5.7H6.1V5.734h3.43V7.3h.05a3.758,3.758,0,0,1,3.384-1.86c3.62,0,4.285,2.383,4.285,5.479v6.326Z" transform="translate(1251 11035.999)" fill="#fff"/>
  </g>
</svg>
